<svg width="40" height="40" viewBox="0 0 40 40" fill="none" xmlns="http://www.w3.org/2000/svg">
<g id="Clip path group">
<mask id="mask0_6043_4130" style="mask-type:luminance" maskUnits="userSpaceOnUse" x="0" y="0" width="40" height="40">
<g id="clip0_6043_4057">
<path id="Vector" d="M39.0476 0.476196H0V39.5238H39.0476V0.476196Z" fill="white"/>
</g>
</mask>
<g mask="url(#mask0_6043_4130)">
<g id="Group">
<path id="Vector_2" d="M25.9067 28.2159L26.3544 28.6635L26.333 28.6851L26.3483 28.7003L25.9006 29.148L20.1598 34.8878L19.6139 35.4336L19.1877 34.7897C19.111 34.6732 19.0375 34.5598 18.973 34.4494C18.9086 34.3451 18.8442 34.2348 18.7829 34.1244L18.7492 34.0631L18.7155 34.0048C18.6663 33.9159 18.6235 33.8362 18.5805 33.7503L18.5775 33.7411C18.5406 33.6706 18.5069 33.6031 18.4732 33.5295C18.4333 33.4529 18.3965 33.3701 18.3597 33.2904C18.3137 33.1923 18.2677 33.085 18.2217 32.9807C18.1849 32.8918 18.1481 32.7998 18.1113 32.7048C18.0959 32.6679 18.0806 32.6281 18.0683 32.5882C18.0346 32.4993 18.0039 32.4134 17.9763 32.3337C17.9641 32.297 17.9518 32.2632 17.9396 32.2295C17.9089 32.1436 17.8813 32.0548 17.8568 31.9689C17.8476 31.9382 17.8322 31.8984 17.823 31.8524C17.823 31.8524 17.823 31.8492 17.823 31.8462V31.8371L17.8169 31.8248C17.7832 31.7113 17.7556 31.6071 17.731 31.512C17.7065 31.417 17.6819 31.3189 17.6575 31.2146L17.6482 31.1778C17.6421 31.1471 17.6359 31.1195 17.6298 31.0889L17.6206 31.0491C17.5961 30.9448 17.5746 30.8374 17.5562 30.7271C17.5348 30.6075 17.5102 30.4787 17.4949 30.3438C17.4796 30.2518 17.4673 30.1537 17.4519 30.0311V30.0218V30.0127V29.9881C17.4428 29.9513 17.4397 29.9114 17.4366 29.8747C17.4275 29.7766 17.4152 29.6753 17.409 29.5681C17.409 29.5435 17.4059 29.5221 17.4059 29.5068C17.3968 29.3994 17.3906 29.2951 17.3876 29.1878C17.3876 29.1572 17.3876 29.1234 17.3845 29.0897C17.3783 28.9824 17.3783 28.8659 17.3783 28.7188C17.3783 27.6027 17.5409 26.5142 17.8659 25.4686L14.5202 28.8138C14.5325 30.5769 14.8698 32.2939 15.5261 33.922C16.2222 35.6391 17.2435 37.1813 18.5621 38.5059L19.4238 39.3706L19.571 39.5178L30.3718 28.7188L22.0458 20.3941L21.598 19.9465L21.3497 19.6951L19.9912 18.3397L13.4193 11.769L12.9716 11.3213L12.9961 11.2968L13.4378 10.8461L19.1785 5.1062L19.7243 4.56042L20.1506 5.20431C21.3405 7.00108 21.9692 9.09834 21.9692 11.2723C21.9692 11.7322 21.9416 12.186 21.8833 12.6336L24.7444 9.77287C24.6096 8.49738 24.2967 7.25251 23.8183 6.0659C23.1222 4.34886 22.101 2.80964 20.7823 1.48506L19.7703 0.470154L8.96655 11.2784L25.9067 28.2159Z" fill="#FF385C"/>
<path id="Vector_3" d="M10.7947 26.7042L10.347 26.2565L4.63075 20.5411L4.08795 19.9985L4.72888 19.5723C6.53206 18.3672 8.63579 17.7326 10.8193 17.7326C10.9695 17.7326 11.1167 17.7326 11.267 17.7418L8.58059 15.0558C7.56246 15.2213 6.56273 15.5004 5.609 15.8898C3.89475 16.5858 2.35222 17.6099 1.0305 18.9314L0.00317383 19.9586L10.2029 30.1567L16.9433 23.4172L15.5143 21.9884L11.2424 26.2596L10.7947 26.7072V26.7042Z" fill="#FF385C"/>
<path id="Vector_4" d="M27.6578 12.6981L28.1055 13.1458L34.4167 19.456L34.9594 19.9987L34.3216 20.4249C32.5246 21.6299 30.4209 22.2646 28.2343 22.2676C28.1883 22.2676 28.1423 22.2676 28.0963 22.2676L30.7306 24.9015C31.6536 24.7329 32.5644 24.4661 33.4414 24.1104C35.1588 23.4144 36.7013 22.3903 38.0231 21.0688L39.0473 20.0447L28.2527 9.25179L21.6655 15.8379L23.0946 17.2668L27.2162 13.1458L27.6639 12.6981H27.6578Z" fill="#FF385C"/>
</g>
</g>
</g>
</svg>
