<svg width="150" height="22" viewBox="0 0 150 22" fill="none" xmlns="http://www.w3.org/2000/svg">
<path id="Vector" d="M0.438477 16.619L6.31277 0.619043H9.37562L15.2042 16.619H12.3013L7.82134 3.81904L3.31848 16.619H0.438477ZM3.04419 12.8476L3.79848 10.6762H11.6613L12.3928 12.8476H3.04419ZM17.2913 16.619V5.2819H19.737L19.9885 7.43047C20.2628 6.92761 20.598 6.50095 20.9942 6.15047C21.3904 5.78476 21.8551 5.50285 22.3885 5.30476C22.9218 5.10666 23.5161 5.00761 24.1713 5.00761V7.88761H23.417C22.9294 7.88761 22.4799 7.94857 22.0685 8.07047C21.657 8.17714 21.299 8.35999 20.9942 8.61904C20.6894 8.87809 20.4532 9.23619 20.2856 9.69333C20.118 10.1352 20.0342 10.6838 20.0342 11.339V16.619H17.2913ZM26.1975 16.619V5.2819H28.6432L28.8947 7.43047C29.169 6.92761 29.5042 6.50095 29.9004 6.15047C30.2966 5.78476 30.7613 5.50285 31.2947 5.30476C31.828 5.10666 32.4223 5.00761 33.0775 5.00761V7.88761H32.3232C31.8356 7.88761 31.3861 7.94857 30.9747 8.07047C30.5632 8.17714 30.2051 8.35999 29.9004 8.61904C29.5956 8.87809 29.3594 9.23619 29.1918 9.69333C29.0242 10.1352 28.9404 10.6838 28.9404 11.339V16.619H26.1975ZM40.2297 16.8933C39.1478 16.8933 38.165 16.6419 37.2811 16.139C36.4126 15.6362 35.7269 14.9429 35.224 14.059C34.7211 13.16 34.4697 12.1238 34.4697 10.9505C34.4697 9.77714 34.7211 8.74095 35.224 7.8419C35.7421 6.94285 36.4354 6.24952 37.304 5.7619C38.1878 5.25904 39.1707 5.00761 40.2526 5.00761C41.3497 5.00761 42.3326 5.25904 43.2011 5.7619C44.0697 6.24952 44.7554 6.94285 45.2583 7.8419C45.7764 8.72571 46.0354 9.7619 46.0354 10.9505C46.0354 12.1238 45.7764 13.16 45.2583 14.059C44.7554 14.9429 44.0621 15.6362 43.1783 16.139C42.3097 16.6419 41.3269 16.8933 40.2297 16.8933ZM40.2297 14.539C40.7783 14.539 41.2735 14.4095 41.7154 14.1505C42.1726 13.8762 42.5383 13.4724 42.8126 12.939C43.0869 12.4057 43.224 11.7429 43.224 10.9505C43.224 10.1581 43.0869 9.49523 42.8126 8.9619C42.5383 8.42857 42.1726 8.03238 41.7154 7.77333C41.2735 7.49904 40.7859 7.3619 40.2526 7.3619C39.7345 7.3619 39.2469 7.49904 38.7897 7.77333C38.3326 8.03238 37.9592 8.42857 37.6697 8.9619C37.3954 9.49523 37.2583 10.1581 37.2583 10.9505C37.2583 11.7276 37.3954 12.3905 37.6697 12.939C37.9592 13.4724 38.325 13.8762 38.7669 14.1505C39.224 14.4095 39.7116 14.539 40.2297 14.539ZM50.4914 16.619L47.154 5.2819H49.8743L52.2514 14.8819L51.5886 14.859L54.2857 5.2819H57.3257L60.0457 14.859L59.36 14.8819L61.7371 5.2819H64.48L61.1429 16.619H58.3086L55.4286 6.69904H56.1829L53.3257 16.619H50.4914ZM77.4191 16.8933C76.261 16.8933 75.2324 16.6876 74.3333 16.2762C73.4343 15.8648 72.7257 15.2781 72.2076 14.5162C71.7048 13.7543 71.4457 12.8476 71.4305 11.7962H74.3333C74.3486 12.3295 74.4781 12.8095 74.7219 13.2362C74.9657 13.6476 75.3086 13.9752 75.7505 14.219C76.2076 14.4629 76.7562 14.5848 77.3962 14.5848C77.96 14.5848 78.44 14.5009 78.8362 14.3333C79.2476 14.1505 79.56 13.899 79.7733 13.579C79.9867 13.2438 80.0933 12.8552 80.0933 12.4133C80.0933 11.8952 79.9714 11.4762 79.7276 11.1562C79.499 10.8209 79.1714 10.539 78.7448 10.3105C78.3333 10.0819 77.8533 9.88381 77.3048 9.71619C76.7714 9.54857 76.2076 9.35809 75.6133 9.14476C74.3791 8.73333 73.4419 8.2 72.8019 7.54476C72.1619 6.87428 71.8419 5.98285 71.8419 4.87047C71.8419 3.94095 72.0629 3.14095 72.5048 2.47047C72.9619 1.8 73.5867 1.2819 74.3791 0.916186C75.1867 0.535234 76.1162 0.344757 77.1676 0.344757C78.2343 0.344757 79.1638 0.535234 79.9562 0.916186C80.7486 1.29714 81.3733 1.83047 81.8305 2.51619C82.3029 3.18666 82.5467 3.99428 82.5619 4.93904H79.6362C79.6362 4.54285 79.5295 4.17714 79.3162 3.8419C79.1181 3.49142 78.8286 3.20952 78.4476 2.99619C78.0819 2.76761 77.64 2.65333 77.1219 2.65333C76.6648 2.63809 76.2533 2.71428 75.8876 2.8819C75.5219 3.03428 75.2324 3.26285 75.0191 3.56761C74.821 3.85714 74.7219 4.22285 74.7219 4.66476C74.7219 5.09142 74.821 5.44952 75.0191 5.73904C75.2171 6.01333 75.499 6.24952 75.8648 6.44761C76.2305 6.63047 76.6495 6.80571 77.1219 6.97333C77.6095 7.14095 78.1429 7.3238 78.7219 7.5219C79.5143 7.78095 80.2305 8.10095 80.8705 8.4819C81.5257 8.84761 82.0438 9.32761 82.4248 9.9219C82.8057 10.5162 82.9962 11.2857 82.9962 12.2305C82.9962 13.0533 82.7829 13.8229 82.3562 14.539C81.9295 15.24 81.3048 15.8114 80.4819 16.2533C79.6591 16.68 78.6381 16.8933 77.4191 16.8933ZM85.5276 21.6476V5.2819H87.9733L88.2705 6.95047C88.5143 6.61523 88.8114 6.29523 89.1619 5.99047C89.5124 5.68571 89.9314 5.44952 90.419 5.2819C90.9067 5.09904 91.4781 5.00761 92.1333 5.00761C93.2152 5.00761 94.1676 5.26666 94.9905 5.78476C95.8286 6.30285 96.4914 7.01142 96.979 7.91047C97.4667 8.80952 97.7105 9.83047 97.7105 10.9733C97.7105 12.1162 97.4667 13.1371 96.979 14.0362C96.4914 14.92 95.8286 15.6209 94.9905 16.139C94.1524 16.6419 93.1924 16.8933 92.1105 16.8933C91.2419 16.8933 90.48 16.7333 89.8248 16.4133C89.1848 16.0781 88.6667 15.6057 88.2705 14.9962V21.6476H85.5276ZM91.5619 14.5162C92.2172 14.5162 92.7962 14.3638 93.299 14.059C93.8171 13.7543 94.2133 13.3352 94.4876 12.8019C94.7771 12.2686 94.9219 11.6514 94.9219 10.9505C94.9219 10.2648 94.7771 9.65523 94.4876 9.1219C94.2133 8.57333 93.8171 8.14666 93.299 7.8419C92.7962 7.53714 92.2172 7.38476 91.5619 7.38476C90.9067 7.38476 90.3276 7.53714 89.8248 7.8419C89.3219 8.14666 88.9257 8.56571 88.6362 9.09904C88.3619 9.63238 88.2248 10.2495 88.2248 10.9505C88.2248 11.6514 88.3619 12.2686 88.6362 12.8019C88.9257 13.3352 89.3219 13.7543 89.8248 14.059C90.3276 14.3638 90.9067 14.5162 91.5619 14.5162ZM104.19 16.8933C103.23 16.8933 102.437 16.7409 101.812 16.4362C101.188 16.1162 100.723 15.6971 100.418 15.179C100.113 14.6457 99.961 14.0667 99.961 13.4419C99.961 12.7257 100.144 12.1086 100.51 11.5905C100.89 11.0571 101.447 10.6457 102.178 10.3562C102.91 10.0514 103.816 9.89904 104.898 9.89904H107.801C107.801 9.30476 107.71 8.81714 107.527 8.43619C107.359 8.04 107.092 7.74285 106.727 7.54476C106.376 7.34666 105.934 7.24761 105.401 7.24761C104.776 7.24761 104.228 7.39999 103.755 7.70476C103.298 7.99428 103.024 8.42857 102.932 9.00761H100.235C100.311 8.18476 100.586 7.47618 101.058 6.8819C101.53 6.28761 102.148 5.83047 102.91 5.51047C103.671 5.17523 104.51 5.00761 105.424 5.00761C106.49 5.00761 107.405 5.19809 108.167 5.57904C108.944 5.94476 109.53 6.47047 109.927 7.15618C110.338 7.8419 110.544 8.67238 110.544 9.64761V16.619H108.212L107.938 14.7905C107.786 15.0952 107.588 15.3771 107.344 15.6362C107.115 15.88 106.849 16.1009 106.544 16.299C106.239 16.4819 105.889 16.6267 105.492 16.7333C105.111 16.84 104.677 16.8933 104.19 16.8933ZM104.807 14.7219C105.249 14.7219 105.645 14.6457 105.995 14.4933C106.346 14.3257 106.643 14.0971 106.887 13.8076C107.146 13.5181 107.344 13.1905 107.481 12.8248C107.618 12.459 107.702 12.0781 107.732 11.6819V11.659H105.195C104.647 11.659 104.197 11.7276 103.847 11.8648C103.496 12.0019 103.237 12.1924 103.07 12.4362C102.917 12.6648 102.841 12.9314 102.841 13.2362C102.841 13.5562 102.917 13.8305 103.07 14.059C103.237 14.2724 103.466 14.44 103.755 14.5619C104.045 14.6686 104.395 14.7219 104.807 14.7219ZM118.87 16.8933C117.728 16.8933 116.714 16.6419 115.83 16.139C114.947 15.6362 114.253 14.9429 113.75 14.059C113.248 13.16 112.996 12.1238 112.996 10.9505C112.996 9.77714 113.248 8.74857 113.75 7.86476C114.253 6.98095 114.947 6.28761 115.83 5.78476C116.714 5.26666 117.728 5.00761 118.87 5.00761C120.303 5.00761 121.507 5.38095 122.482 6.12761C123.457 6.87428 124.082 7.89523 124.356 9.19047H121.453C121.316 8.61142 121.011 8.1619 120.539 7.8419C120.067 7.5219 119.503 7.3619 118.848 7.3619C118.284 7.3619 117.773 7.49904 117.316 7.77333C116.859 8.04761 116.486 8.45904 116.196 9.00761C115.922 9.54095 115.785 10.1886 115.785 10.9505C115.785 11.5143 115.861 12.0248 116.013 12.4819C116.181 12.9238 116.402 13.3048 116.676 13.6248C116.966 13.9295 117.293 14.1657 117.659 14.3333C118.04 14.4857 118.436 14.5619 118.848 14.5619C119.29 14.5619 119.686 14.4933 120.036 14.3562C120.387 14.2038 120.684 13.9905 120.928 13.7162C121.187 13.4419 121.362 13.1067 121.453 12.7105H124.356C124.082 13.9752 123.457 14.9886 122.482 15.7505C121.507 16.5124 120.303 16.8933 118.87 16.8933ZM132.396 16.8933C131.253 16.8933 130.24 16.6495 129.356 16.1619C128.488 15.659 127.802 14.9733 127.299 14.1048C126.811 13.2209 126.568 12.1924 126.568 11.019C126.568 9.83047 126.811 8.78666 127.299 7.88761C127.787 6.98857 128.465 6.28761 129.333 5.78476C130.217 5.26666 131.238 5.00761 132.396 5.00761C133.524 5.00761 134.507 5.25904 135.345 5.7619C136.183 6.24952 136.838 6.90476 137.31 7.72761C137.783 8.55047 138.019 9.47999 138.019 10.5162C138.019 10.6686 138.011 10.8362 137.996 11.019C137.996 11.2019 137.989 11.4 137.973 11.6133H128.533V9.85333H135.253C135.208 9.04571 134.918 8.41333 134.385 7.95618C133.851 7.4838 133.189 7.24761 132.396 7.24761C131.832 7.24761 131.307 7.37714 130.819 7.63619C130.347 7.88 129.966 8.25333 129.676 8.75618C129.402 9.2438 129.265 9.86857 129.265 10.6305V11.2933C129.265 11.9943 129.402 12.5962 129.676 13.099C129.95 13.5867 130.324 13.9676 130.796 14.2419C131.269 14.5009 131.794 14.6305 132.373 14.6305C132.998 14.6305 133.524 14.4933 133.95 14.219C134.377 13.9295 134.697 13.5486 134.91 13.0762H137.676C137.478 13.8076 137.128 14.4629 136.625 15.0419C136.137 15.6057 135.535 16.0552 134.819 16.3905C134.103 16.7257 133.295 16.8933 132.396 16.8933ZM145.123 16.8933C144.148 16.8933 143.279 16.7333 142.517 16.4133C141.755 16.0781 141.146 15.6209 140.689 15.0419C140.247 14.4629 139.98 13.7924 139.889 13.0305H142.631C142.723 13.3505 142.868 13.64 143.066 13.899C143.279 14.1581 143.553 14.3638 143.889 14.5162C144.239 14.6686 144.643 14.7448 145.1 14.7448C145.542 14.7448 145.908 14.6838 146.197 14.5619C146.487 14.4248 146.692 14.2571 146.814 14.059C146.951 13.8457 147.02 13.6248 147.02 13.3962C147.02 13.0305 146.921 12.7562 146.723 12.5733C146.54 12.3905 146.258 12.2457 145.877 12.139C145.496 12.0171 145.047 11.9029 144.529 11.7962C144.056 11.6895 143.569 11.56 143.066 11.4076C142.563 11.2552 142.106 11.0648 141.694 10.8362C141.283 10.5924 140.948 10.2876 140.689 9.9219C140.445 9.54095 140.323 9.0838 140.323 8.55047C140.323 7.87999 140.498 7.27809 140.849 6.74476C141.199 6.19619 141.71 5.76952 142.38 5.46476C143.05 5.16 143.858 5.00761 144.803 5.00761C146.113 5.00761 147.165 5.31999 147.957 5.94476C148.765 6.55428 149.237 7.41523 149.374 8.52761H146.769C146.692 8.10095 146.479 7.76571 146.129 7.5219C145.793 7.27809 145.344 7.15618 144.78 7.15618C144.201 7.15618 143.759 7.27047 143.454 7.49904C143.15 7.71238 142.997 7.99428 142.997 8.34476C142.997 8.57333 143.096 8.77904 143.294 8.9619C143.508 9.14476 143.797 9.29714 144.163 9.41904C144.529 9.54095 144.955 9.66285 145.443 9.78476C146.235 9.95238 146.959 10.1505 147.614 10.379C148.27 10.6076 148.795 10.9352 149.191 11.3619C149.588 11.7886 149.786 12.4057 149.786 13.2133C149.801 13.9295 149.618 14.5695 149.237 15.1333C148.856 15.6819 148.315 16.1162 147.614 16.4362C146.913 16.7409 146.083 16.8933 145.123 16.8933Z" fill="black"/>
</svg>
